<svg width="590" height="736" viewBox="0 0 590 736" xmlns="http://www.w3.org/2000/svg"><title>Artboard</title><g fill="none" fill-rule="evenodd"><ellipse fill="#CCC" cx="135" cy="460.7" rx="90.8" ry="12.5"/><path d="M81.3 285.7s-12.2 55.2-13.7 79.8c-1.5 24.7-2.2 50.7-2.2 54.8 0 4.1-1.7 14.5 6.2 15.3 3 .3 5.4.1 7.7-.1 3.8-.3 7.4-.6 13.1 1.2 4.9 1.6 11.1.9 17.6.2 5.8-.6 11.9-1.2 17.4-.2 11.7 2.2 19.2 2.3 34.2 1 15-1.3 14.3-3.8 34.3-2.6 20 1.2 21-.3 19.8-8.5-1.2-8.2-17.8-128.2-40-146.5-22.1-18.3-94.4 5.6-94.4 5.6" fill="#E33B3B"/><path d="M180 426.3c-4.4.2-9 1.5-12.6 2.8v8c7.4-1 10.3-2.3 19.4-2.3 2.5 0 5.4.1 9 .3 3.8.2 7 .3 9.5.3 8.6 0 10.6-1.4 10.6-5.3 0-.7-.1-1.4-.2-2.2-4.1.4-8.9.6-13.4.6-6.7 0-13-.5-16.7-1.6-.5-.1-1-.3-1.4-.4-.2 1.3-.7 2.3-1.8 2.5-.1 0-.3.1-.4.1-.9.1-1.6-1.1-2-2.8M112 391c-1.2 10-3.1 31-1.4 46 3.4-.4 6.8-.7 10.2-.7 2.3 0 4.5.2 6.6.5 6.7 1.3 12.1 1.8 18.3 1.8 3.3 0 6.9-.2 11-.5 1.9-14.2.2-34.3-1-45.2-5.7 4.6-12.9 7.4-20.8 7.4-8.9 0-17-3.5-22.9-9.3m-42.8-20.3s-.8.5-2 1.2v.9c1.2-1.2 2-2.1 2-2.1m-1.1-11.5c-.1 1.3-.2 2.5-.3 3.6.3-.1.5-.1.5-.1s-.1-1.2-.2-3.5m19.7-49.9c-5.5 9.7-12.8 27.8-10.5 53.5h1.8c3.6 0 11.5.4 10.7 4.4-.6 3-4.4 3.7-7.3 3.7-2 0-3.7-.3-3.7-.3s4.8 22.5-1.6 22.5h-.3c-6.8-.8-3.1-20.5-3.1-20.5s-2.7 10-7.2 12.3c-.8 17.5-1.2 32.5-1.2 35.5 0 1.2-.1 3-.1 5 0 4.5.8 9.8 6.3 10.4 1.2.1 2.2.2 3.2.2 1.6 0 3-.1 4.5-.2 1.4-.1 2.8-.2 4.3-.2 2.5 0 5.2.3 8.8 1.5 2.2.7 4.7 1 7.3 1h.3c-.1-14.1.3-41.7 4.9-56.8-.8-1.8-1.5-3.6-1.9-5.5-3.9 4.2-12.4 15.6-13.4 35 0 0 8.4.7 7.4 3.8-.5 1.4-1.9 1.8-3.4 1.8-1.8 0-3.7-.6-3.7-.6s1 13.8-2.7 13.8c-.1 0-.3 0-.4-.1-4.2-1-.2-13-.2-13s-3 7.2-6.4 7.2c-.4 0-.8-.1-1.2-.3-3.8-2.1 4.9-8.3 4.9-8.3s-4.2 1.9-6.6 1.9c-1.2 0-2.1-.5-1.7-2 1.1-4.4 8.4-5 8.4-5s2.5-34 18-40.3c0-.7-.1-1.4-.1-2 0-5 1.1-9.7 3.1-13.9-10.5-8-17.3-20.4-17.3-34.2 0 0-.1-1.7-.1-4.4 0-1.9.1-3.8.2-5.9m-9.5-9.5c-.5 2.5-1.1 5.4-1.7 8.3 1.1-2.2 2.4-4.3 3.8-6.2l-2.1-2.1" fill="#DA2B2B"/><path d="M93.5 301s-19.7 21.5-16.3 61.8c0 0 13.5-.8 12.5 4.4-1 5.1-11 3.4-11 3.4s4.9 23.3-1.9 22.5c-6.8-.8-3.1-20.5-3.1-20.5s-4 15-10.5 12.5 6-14.3 6-14.3-14 9-13.2 1.7c.8-7.2 12.2-9.7 12.2-9.7s-3.7-60 23.5-69.5l1.8 7.7m79.5 0s19.8 21.5 16.3 61.8c0 0-13.5-.8-12.5 4.4 1 5.1 11 3.4 11 3.4s-4.9 23.3 1.9 22.5c6.8-.8 3.1-20.5 3.1-20.5s4 15 10.5 12.5-6-14.3-6-14.3 14 9 13.3 1.7c-.8-7.2-12.3-9.7-12.3-9.7s3.8-60-23.5-69.5L173 301m-8.4 72.6s14 11.7 15.2 36.9c0 0-8.4.7-7.4 3.8 1 3.1 7.1 1.2 7.1 1.2s-1.1 14.8 3.1 13.8.2-13 .2-13 3.7 9 7.5 6.9c3.8-2.1-4.9-8.3-4.9-8.3s9.4 4.4 8.4 0c-1.1-4.4-8.4-5-8.4-5s-2.7-37.5-20.4-41.1l-.4 4.8m-60.2-4.9C86.7 372.3 84 409.8 84 409.8s-7.3.6-8.4 5c-1.1 4.4 8.4 0 8.4 0s-8.7 6.2-4.9 8.3c3.8 2.1 7.5-6.9 7.5-6.9s-4 11.9.2 13c4.2 1.1 3.1-13.8 3.1-13.8s6 1.9 7.1-1.2c1-3.1-7.4-3.8-7.4-3.8 1.2-25.2 15.2-36.9 15.2-36.9l-.4-4.8m1.9 8.6c-7.9 18.7-6 69.3-6 69.3s-32.8 4.8-33.8 12.8 18.5 5.3 33.2 2c14.7-3.3 15.3-.3 11.7-20.3-3.7-20 1.5-56 1.5-56s1.2-26.5-6.6-7.8m48.5 7.9s5.2 36 1.5 56-3 17 11.7 20.3c14.7 3.3 34.2 6 33.2-2s-33.8-12.8-33.8-12.8 1.9-50.6-6-69.3c-8-18.8-6.6 7.8-6.6 7.8" fill="#3A305B"/><path d="M167.9 367.3c0 18.2-14.8 33-33 33s-33-14.8-33-33 14.8-33 33-33c18.3.1 33 14.8 33 33" fill="#44386B"/><path d="M164.1 351.9c-8.1 6.9-18.8 11-30.5 11-10.8 0-20.7-3.6-28.6-9.5-2 4.2-3.1 8.9-3.1 13.9 0 13.4 8 25 19.5 30.1-8.4-11.9-6.6-32.5-6.6-32.5 9.2 2.9 16.9 4 23.3 4 16.8 0 24.7-7.8 27.9-12.5-.5-1.5-1.1-3-1.9-4.5" fill="#362B5D"/><path d="M165.5 275.2c15.3 7.7 14 44 14 44 0 24.2-20.5 43.8-45.9 43.8-25.3 0-45.9-19.6-45.9-43.8 0 0-2.5-32 14.3-42.3 16.8-10.2 63.5-1.7 63.5-1.7" fill="#4E427C"/><path d="M87.9 308.2c-.2 2.5-.2 4.8-.2 6.6 0 2.7.1 4.4.1 4.4 0 24.2 20.5 43.8 45.9 43.8 14.4 0 27.3-6.4 35.7-16.3-5.4 2.3-12.3 3.9-21.3 3.9-4.3 0-9-.4-14.1-1.2-27.2-4.4-30.8-24.3-30.1-37.6-.3.2-.7.3-1 .5-1.1.4-2.2.6-3.3.6-4 0-8-2.1-11.7-4.7m66.4-16.3c-10.3 2.5-21.1 3.8-32.3 3.8-5 0-10-.3-14.9-.8.4 1.1 1 2.8 1.3 4.8 0 .1 0 .2.1.3 9.3 1.1 17 1.5 23.5 1.5 9.7 0 16.4-.9 21-2v-.5c0-2.7.7-5.3 1.3-7.1" fill="#3E336C"/><path d="M106.5 293.5s7 14.5-3.7 18.7c-10.7 4.2-26.8-15-26.8-15-.3-21.7 30.5-3.7 30.5-3.7m48.7-4s-7 14.5 3.7 18.7c10.8 4.3 26.8-15 26.8-15 .3-21.7-30.5-3.7-30.5-3.7" fill="#E35454"/><g fill="#DA3D3D"><path d="M179.7 283c-8 3.8-16.5 6.8-25.4 8.9-.6 1.8-1.3 4.4-1.3 7v.2c10.7-2.4 21-7 29.6-14.7-.8-.6-1.8-1.1-2.9-1.4M78.8 288.8c-.8.8-1.5 1.8-2 3.1 6.1 2.1 17.7 5.6 31.7 7.8-.3-1.9-.9-3.6-1.3-4.8-10-1-19.4-3.1-28.4-6.1"/></g><path d="M243.3 189.5c0 58.7-54.3 106.2-121.3 106.2S.7 248.1.7 189.5 55 83.2 122 83.2s121.3 47.6 121.3 106.3" fill="#64549E"/><path d="M58.8 98.8C24 117.5.8 151.1.8 189.5c0 58.7 54.3 106.2 121.3 106.2 36.8 0 69.7-14.3 91.9-37-23.2 11.9-47.2 17.2-69.8 17.2-60.3 0-111.4-37.8-114-90.8-2.3-44.1 14.2-71.2 28.6-86.3" fill="#4F4089"/><path d="M216.5 182.5c0 21.3-15.2 38.5-33.9 38.5s-33.9-17.2-33.9-38.5 15.2-38.5 33.9-38.5 33.9 17.2 33.9 38.5zm-197.5 0c0 21.3 15.2 38.5 33.9 38.5s33.9-17.2 33.9-38.5S71.6 144 52.9 144 19 161.2 19 182.5z" fill="#FFF"/><ellipse fill="#201B33" cx="61.5" cy="186" rx="17.5" ry="18.5"/><ellipse fill="#201B33" cx="174.2" cy="186" rx="17.5" ry="18.5"/><path d="M142.7 218.2c-.7 5.7-4.9 10.6-9.9 13-5 2.6-10.6 3.5-16.1 3.6-2.7.1-5.5 0-8.2-.4-1.4-.2-2.7-.5-4.1-.8l-2-.6-1-.3-1-.4c-2.6-.9-5.1-2.3-7.3-4-2.2-1.7-4.1-3.8-5.5-6.2-.4-.7-.2-1.3.1-1.4.4-.1.8 0 1.2.6 1.5 2.1 3.4 3.8 5.5 5.2 2.1 1.4 4.4 2.5 6.9 3.2l.9.3.9.2 1.9.5c1.3.2 2.5.5 3.8.6 2.6.3 5.1.4 7.7.3 5.2-.1 10.4-.8 14.9-2.9 1.2-.5 2.2-1.2 3.3-1.8l1.5-1.1c.5-.4.9-.9 1.3-1.3s.8-1 1.2-1.4c.4-.5.7-1 1-1.6.6-1.1 1.1-2.3 1.3-3.5.2-.8.6-1.2 1-1.2.4-.1.8.5.7 1.4z" fill="#2F2944"/><path d="M85.2 112s3.2 5.7 10.8 1.2c7.7-4.5 4.7-99-28.5-110.3C29-10.2-5.7 37.2 9.5 49.6c7.9 6.4 17-2.4 26.6-11.1 8.9-8.1 18.3-16.3 27.4-12.2 17.1 7.4 27.1 36.9 21.7 85.7" fill="#7663BA"/><path d="M59 17c-14.3 0-28.5 19.8-38.3 24.3-1.5.7-2.8 1-3.9 1-5.6 0-7.4-7.1-8-12.1C7 34 6 37.8 6 41.1c0 3.5 1.1 6.5 3.6 8.5 1.9 1.5 3.8 2.2 5.9 2.2 6.4 0 13.4-6.6 20.7-13.3 7.3-6.6 14.9-13.3 22.4-13.3 1.7 0 3.4.3 5 1.1 13.9 6.1 23.1 27 23.1 61 0 7.6-.5 15.9-1.4 24.8 0 0 1.2 2.2 4.1 2.8 7.3-38.6.1-72.1-17.3-91.3C67.7 18.8 63.4 17 59 17" fill="#5D4CA1"/><path d="M167.3 112s3.2 5.7 10.8 1.2c7.7-4.5 4.7-99-28.5-110.3-38.5-13.1-73.2 34.3-58 46.7 7.9 6.4 17-2.4 26.6-11.1 8.9-8.1 18.3-16.3 27.4-12.2 17 7.4 27 36.9 21.7 85.7" fill="#7E6AC7"/><path d="M140 17c-14.3 0-28.5 19.8-38.3 24.3-1.5.7-2.8 1-3.9 1-5 0-7-5.6-7.8-10.4-1.3 3.2-2.1 6.4-2.1 9.1 0 3.5 1.1 6.5 3.6 8.5 1.9 1.5 3.8 2.2 5.9 2.2 6.4 0 13.4-6.6 20.7-13.3 7.3-6.6 14.9-13.3 22.4-13.3 1.7 0 3.4.3 5 1.1 13.9 6.1 23.1 27 23.1 61v4.2c-.1 6.4-.6 13.3-1.4 20.6 0 0 1 1.7 3.1 2.5 7.2-38.5.1-71.9-17.4-91-4.2-4.7-8.5-6.5-12.9-6.5" fill="#6351AC"/><text font-family="RobotoMonoForPowerline-Thin, Roboto Mono Thin for Powerline" font-size="90" font-style="condensed" font-weight="300" fill="#434148"><tspan x="0" y="618">postcss-ant</tspan></text></g></svg>